<svg width="20" height="20" viewBox="0 0 20 20" fill="none" xmlns="http://www.w3.org/2000/svg">
<g id="vuesax/bold/card-coin">
<g id="card-coin">
<path id="Vector" d="M9.99984 13.0831V13.1748C9.99984 13.4081 9.8165 13.5914 9.58317 13.5914H2.08317C1.84984 13.5914 1.6665 13.4081 1.6665 13.1748V13.0831C1.6665 11.6164 2.03317 11.2498 3.5165 11.2498H8.14984C9.63317 11.2498 9.99984 11.6164 9.99984 13.0831Z" fill="#0DBDF2"/>
<path id="Vector_2" d="M2.08317 14.4248C1.84984 14.4248 1.6665 14.6081 1.6665 14.8415V15.6748V16.4998C1.6665 17.9665 2.03317 18.3331 3.5165 18.3331H8.14984C9.63317 18.3331 9.99984 17.9665 9.99984 16.4998V15.6748V14.8415C9.99984 14.6081 9.8165 14.4248 9.58317 14.4248H2.08317V14.4248Z" fill="#0DBDF2"/>
<path id="Vector_3" d="M18.3333 12.4998C18.3333 15.7248 15.725 18.3331 12.5 18.3331L13.375 16.8748" stroke="#0DBDF2" stroke-linecap="round" stroke-linejoin="round"/>
<path id="Vector_4" d="M1.6665 7.49984C1.6665 4.27484 4.27484 1.6665 7.49984 1.6665L6.62484 3.12484" stroke="#0DBDF2" stroke-linecap="round" stroke-linejoin="round"/>
<path id="Vector_5" d="M15.4165 9.1665C17.4876 9.1665 19.1665 7.48757 19.1665 5.4165C19.1665 3.34544 17.4876 1.6665 15.4165 1.6665C13.3454 1.6665 11.6665 3.34544 11.6665 5.4165C11.6665 7.48757 13.3454 9.1665 15.4165 9.1665Z" fill="#0DBDF2"/>
</g>
</g>
</svg>
