<svg width="47" height="31" viewBox="0 0 47 31" fill="none" xmlns="http://www.w3.org/2000/svg">
<g id="Logo">
<path id="Union" fill-rule="evenodd" clip-rule="evenodd" d="M29.0354 25H29V25.5C29 28.5376 26.5376 31 23.5 31C20.4624 31 18 28.5376 18 25.5V23.5V21.5V14.5C18 6.49187 24.4919 0 32.5 0C40.5081 0 47 6.49187 47 14.5V21.5V23.5V25.5C47 28.5376 44.5376 31 41.5 31C38.4624 31 36 28.5376 36 25.5V25H35.9646C35.9879 24.8367 36 24.6698 36 24.5V21.5V14.5C36 12.567 34.433 11 32.5 11C30.567 11 29 12.567 29 14.5V21.5V24.5C29 24.6698 29.0121 24.8367 29.0354 25Z" fill="url(#paint0_linear_65_1101)"/>
<path id="Union_2" fill-rule="evenodd" clip-rule="evenodd" d="M11.0354 25H11V25.5C11 28.5376 8.53757 31 5.5 31C2.46243 31 0 28.5376 0 25.5V23.5V21.5V14.5C0 6.49187 6.49187 0 14.5 0C22.5081 0 29 6.49187 29 14.5V21.5V23.5V25.5C29 28.5376 26.5376 31 23.5 31C20.4624 31 18 28.5376 18 25.5V25H17.9646C17.9879 24.8367 18 24.6698 18 24.5V21.5V14.5C18 12.567 16.433 11 14.5 11C12.567 11 11 12.567 11 14.5V21.5V24.5C11 24.6698 11.0121 24.8367 11.0354 25Z" fill="url(#paint1_linear_65_1101)"/>
</g>
<defs>
<linearGradient id="paint0_linear_65_1101" x1="19.5" y1="0.5" x2="47" y2="29.6682" gradientUnits="userSpaceOnUse">
<stop stop-color="#3399D2"/>
<stop offset="0.742113" stop-color="#40C4FC"/>
</linearGradient>
<linearGradient id="paint1_linear_65_1101" x1="3.65603" y1="31" x2="19" y2="3.5" gradientUnits="userSpaceOnUse">
<stop stop-color="#1E8FCE"/>
<stop offset="0.999676" stop-color="#40C4FC"/>
</linearGradient>
</defs>
</svg>
